<?xml version="1.0" encoding="UTF-8"?>
<svg version="1.1" xmlns="http://www.w3.org/2000/svg" width="1279" height="528">
<path d="M0 0 C1.28336243 0.00182281 2.56672485 0.00364563 3.88897705 0.00552368 C22.27981988 0.04954287 40.31059141 0.3897623 58.5 3.3125 C59.62712402 3.48410645 60.75424805 3.65571289 61.91552734 3.83251953 C136.18322431 15.31594538 206.18330147 47.01281001 264.5 94.3125 C265.94246094 95.46492188 265.94246094 95.46492188 267.4140625 96.640625 C273.02305739 101.15942089 278.40861751 105.87038305 283.69921875 110.7578125 C285.17331789 112.10238828 286.65236687 113.44250518 288.17016602 114.73754883 C294.20582533 119.89066866 299.80323233 125.46385692 305.40014648 131.08227539 C307.0592732 132.74676277 308.72368051 134.40583447 310.38867188 136.06445312 C315.96926865 141.64119392 321.40513072 147.28336169 326.5 153.3125 C327.48428662 154.44261879 328.46993384 155.5715542 329.45703125 156.69921875 C381.07032733 216.18934998 417.2681626 287.90147385 439.54296875 363.15625 C456.83651822 421.58040362 492.68628754 468.75408177 545.5 499.3125 C546.12165039 499.67827148 546.74330078 500.04404297 547.38378906 500.42089844 C574.00514998 515.97314714 604.99825044 524.19440617 635.5 527.3125 C635.5 527.6425 635.5 527.9725 635.5 528.3125 C216.4 528.3125 -202.7 528.3125 -634.5 528.3125 C-634.5 527.9825 -634.5 527.6525 -634.5 527.3125 C-633.94352783 527.24780518 -633.38705566 527.18311035 -632.8137207 527.11645508 C-581.89275687 521.0513367 -535.67577974 500.96342263 -498.5 465.3125 C-497.70311768 464.55646484 -497.70311768 464.55646484 -496.89013672 463.78515625 C-488.59398375 455.8807729 -481.309044 447.524736 -474.5 438.3125 C-473.86578125 437.46171875 -473.2315625 436.6109375 -472.578125 435.734375 C-463.89489265 423.70530999 -456.82725585 410.70362798 -450.5 397.3125 C-449.98824219 396.24257813 -449.47648438 395.17265625 -448.94921875 394.0703125 C-444.77252821 384.86132906 -441.85172764 375.30063221 -438.82421875 365.66796875 C-422.16096326 312.7174663 -401.75050526 262.08894532 -371.5 215.3125 C-370.78585937 214.20390625 -370.07171875 213.0953125 -369.3359375 211.953125 C-367.42671966 209.04608549 -365.47696558 206.17389754 -363.5 203.3125 C-363.06365234 202.67924805 -362.62730469 202.04599609 -362.17773438 201.39355469 C-355.28671466 191.42069193 -348.11671569 181.74187594 -340.5 172.3125 C-339.75234375 171.38179687 -339.0046875 170.45109375 -338.234375 169.4921875 C-336.01011945 166.74787219 -333.76219129 164.02562643 -331.5 161.3125 C-331.07170898 160.7978418 -330.64341797 160.28318359 -330.20214844 159.75292969 C-316.78071649 143.683667 -302.46317717 127.66063905 -286.515625 114.046875 C-284.19885379 112.05337419 -281.94580016 109.99695612 -279.6875 107.9375 C-274.43355323 103.20894791 -269.03199186 98.71168448 -263.5 94.3125 C-262.95150391 93.87019043 -262.40300781 93.42788086 -261.83789062 92.97216797 C-237.21213762 73.1909374 -209.98441595 55.94759366 -181.51757812 42.28662109 C-179.40423785 41.2662644 -177.30381791 40.22190379 -175.203125 39.17578125 C-140.40833231 22.04198182 -102.72460533 10.72710654 -64.5 4.5 C-62.71505127 4.20766479 -62.71505127 4.20766479 -60.89404297 3.90942383 C-40.59710409 0.77010861 -20.52511615 -0.0604196 0 0 Z " fill="#005F53" transform="translate(639.5,-0.3125)"/>
</svg>
