<?xml version="1.0" encoding="UTF-8"?>
<svg version="1.1" xmlns="http://www.w3.org/2000/svg" width="1279" height="528">
<path d="M0 0 C419.1 0 838.2 0 1270 0 C1270 0.33 1270 0.66 1270 1 C1269.44352783 1.06469482 1268.88705566 1.12938965 1268.3137207 1.19604492 C1217.39275687 7.2611633 1171.17577974 27.34907737 1134 63 C1133.46874512 63.50402344 1132.93749023 64.00804688 1132.39013672 64.52734375 C1124.09398375 72.4317271 1116.809044 80.787764 1110 90 C1109.36578125 90.85078125 1108.7315625 91.7015625 1108.078125 92.578125 C1099.39489265 104.60719001 1092.32725585 117.60887202 1086 131 C1085.23236328 132.60488281 1085.23236328 132.60488281 1084.44921875 134.2421875 C1080.27252821 143.45117094 1077.35172764 153.01186779 1074.32421875 162.64453125 C1057.66096326 215.5950337 1037.25050526 266.22355468 1007 313 C1005.92878906 314.66289063 1005.92878906 314.66289063 1004.8359375 316.359375 C1002.92671966 319.26641451 1000.97696558 322.13860246 999 325 C998.56365234 325.63325195 998.12730469 326.26650391 997.67773438 326.91894531 C990.78671466 336.89180807 983.61671569 346.57062406 976 356 C974.87851563 357.39605469 974.87851563 357.39605469 973.734375 358.8203125 C971.51011945 361.56462781 969.26219129 364.28687357 967 367 C966.57170898 367.5146582 966.14341797 368.02931641 965.70214844 368.55957031 C952.28071649 384.628833 937.96317717 400.65186095 922.015625 414.265625 C919.69885379 416.25912581 917.44580016 418.31554388 915.1875 420.375 C909.93355323 425.10355209 904.53199186 429.60081552 899 434 C898.45150391 434.44230957 897.90300781 434.88461914 897.33789062 435.34033203 C872.71213762 455.1215626 845.48441595 472.36490634 817.01757812 486.02587891 C814.90423785 487.0462356 812.80381791 488.09059621 810.703125 489.13671875 C775.90833231 506.27051818 738.22460533 517.58539346 700 523.8125 C698.81003418 524.00739014 697.62006836 524.20228027 696.39404297 524.40307617 C676.09710409 527.54239139 656.02511615 528.3729196 635.5 528.3125 C634.21663757 528.31067719 632.93327515 528.30885437 631.61102295 528.30697632 C613.22018012 528.26295713 595.18940859 527.9227377 577 525 C575.87287598 524.82839355 574.74575195 524.65678711 573.58447266 524.47998047 C499.31677569 512.99655462 429.31669853 481.29968999 371 434 C370.03835938 433.23171875 369.07671875 432.4634375 368.0859375 431.671875 C362.47694261 427.15307911 357.09138249 422.44211695 351.80078125 417.5546875 C350.32668211 416.21011172 348.84763313 414.86999482 347.32983398 413.57495117 C341.29417467 408.42183134 335.69676767 402.84864308 330.09985352 397.23022461 C328.4407268 395.56573723 326.77631949 393.90666553 325.11132812 392.24804688 C319.53073135 386.67130608 314.09486928 381.02913831 309 375 C308.01571338 373.86988121 307.03006616 372.7409458 306.04296875 371.61328125 C254.42967267 312.12315002 218.2318374 240.41102615 195.95703125 165.15625 C178.66348178 106.73209638 142.81371246 59.55841823 90 29 C89.37834961 28.63422852 88.75669922 28.26845703 88.11621094 27.89160156 C61.49485002 12.33935286 30.50174956 4.11809383 0 1 C0 0.67 0 0.34 0 0 Z " fill="#005F53" transform="translate(4,0)"/>
</svg>
