<?xml version="1.0" encoding="UTF-8"?>
<svg id="Capa_13" data-name="Capa 13" xmlns="http://www.w3.org/2000/svg" viewBox="0 0 350.27 367.34">
  <defs>
    <style>
      .cls-1 {
        fill: #ecbf0d;
        stroke-width: 0px;
      }
    </style>
  </defs>
  <g>
    <path class="cls-1" d="M257.48,343.09c-19.97-16.97-31.38-38.97-38.52-63.84-.16.55-.29.88-.35,1.23-2.46,16.08-1.93,32.04,2.86,47.62,2.18,7.11,5.15,14.01,8.15,20.83,2.29,5.22,10.16,18.57,9.71,18.41-35.39-12.93-52.06-34.49-59.16-53.31,1.24-3.55,8.28-16.27,10.37-36.73-2.9-.27-14.66-1.13-16.11-1.62-6.56-2.2-11.03-6.6-13.48-13.03-.42-1.11-.92-1.34-2.08-1.18-2.65.37-5.35.77-8.01.71-7.04-.15-12.27-3.86-16.3-9.25-3.53-4.73-6.39-12.95-4.53-25.56.04,1.06.07,2.13.13,3.19.27,5.26,1.14,10.41,3.22,15.28,1.25,2.93,3.07,5.49,5.94,7.08,3.26,1.81,6.44,1.48,9.29-.92,2.79-2.36,4.46-5.46,5.63-8.84,1.67-4.82,2.16-9.85,1.96-14.88-.3-7.61-5.84-40.99,4.92-60.04-2.51,6.6-7.96,29.53.49,42.15,1.29,1.93,3.42,1.98,4.8.1,3.58-4.9,8.51-7.86,14.17-9.42,3.59-.99,6.88-2.45,10.21-4,5.08-2.36,10.63-2.92,16.14-3.46,1.58-.15,3.2-.07,4.76-.31.83-.12,1.66-.6,2.36-1.1,12.78-13.02,32.98-45.91,72.27-74.17-2.1,2.4-19.98,18.5-27.76,28.26-5.9,7.4-12.03,14.62-17.93,22.01-1.91,2.39-5.86,8.76-5.75,8.86.49-.48,32.12-34.41,51.92-51.74-14.54,16.14-25.45,27.55-27.83,31.92-2.41,3.08-7.35,11.44-7.2,11.31,5.62-5.09,13.44-10.62,20.23-13.96,3.8-1.87,7.54-3.84,11.31-5.77,4.75-2.44,7.5-6.33,8.14-11.6.51-4.14.78-8.31,1.19-12.47.12-1.18.34-2.35.52-3.56.75,19.55,3.62,22,3.57,24.61-.07,3.68-2.05,6.36-5.18,8.21-6.26,3.69-12.67,7.16-18.75,11.12-7.04,4.59-13.83,9.57-20.68,14.45-5.67,4.05-10.79,8.69-14.78,14.45-.97,1.4-1.57,3.08-2.2,4.69-.14.35.2,1.19.56,1.39,4,2.32,7.9,4.93,12.13,6.76,7.97,3.44,15.59,2.42,22.41-3.1,1.34-1.08,2.4-2.5,3.61-3.75.34-.35.72-.7,1.15-.9,9.45-4.36,18.96-10.23,24.91-24.79-1.11,11-12.08,24.46-22.33,29.88-.6.32-1.2.77-1.6,1.3-3.31,4.43-7.5,7.96-11.61,11.6-5.74,5.08-11.4,10.26-17.14,15.35-5.81,5.16-12.13,9.54-19.41,12.4-.83.33-1.67.67-2.54.86-1.07.24-1.21.86-.96,1.77.47,1.7,1.34,3.08,2.91,3.99,1.04.6,2.3,1.3,1.73,2.74-.53,1.33-1.91,1.01-3.03.83-1.67-.26-3.25-.66-4.9.35-1.13.69-2.45-.03-2.76-1.37-.18-.79-.22-1.73.04-2.48.5-1.45.13-2.6-.92-3.49-.48-.41-1.33-.64-1.93-.53-.32.06-.69,1.05-.65,1.6.22,2.9,1.49,5.33,3.59,7.33.32.31.72.59.96.92.33.45.54,1.12.15,1.51-.34.43-1.14.22-1.46-.02-3.83-2.77-6.99-5.99-6.88-11.35-1.25-.14-2.47-.27-4.02-.44.36,1.14.57,2.14.98,3.04,2.63,5.91,6.57,10.78,11.84,14.54,3.62,2.59,7.42,2.87,12.48.99.72,1.94,1.5,3.86,2.17,5.82,3.03,8.91,8.9,15.57,16.53,20.8,21.96,14.53,49.47,7.15,52.68,1.76-1.01,2.51-2.88,4.1-5.16,5.43-4.63,2.69-9.7,3.78-14.89,4.52-5.76.82-19.6,2.32-20.88,2.37-1.31.15-2,.38-2.22,1.7-.82,5.11-1.93,10.68-2.76,20.03-.75,9.46-.85,9.83-.28,14.53,0,.09-.05.19-.12.4l-.04-.02ZM193.31,201.49c22.27.39,26.29,17.96,40.06,20.27,9.83,1.65,25.8-9.08,25.78-9.29-7.42,1.95-14.15-.26-20.71-3.46-3-1.46-5.99-2.94-9.01-4.34-7.17-3.32-14.47-6.19-22.59-5.95-3.59.11-9.77,1.44-13.52,2.78h0ZM171.89,212.18c24.36.05,25.45,17.93,38.8,14.84,6.35-.42,23.18-3.38,23.81-3.5-17.8.46-28.68-23.78-49.02-19.82-11.96,1.52-13.12,7.23-13.59,8.48h0ZM203.65,228.2c-12.36-.49-22.33-17.78-36.26-13.91-2.58.8-6.87,1.49-7.44,11.27,5.98-1.74,18.06,2.97,18.98,3.35,8.57,4.81,23.8-.62,24.71-.71h.01Z"/>
    <path class="cls-1" d="M286.69,230.82c5.01-.12,6.43-3.08,6.52-7.02-.57,1.57-1.76,7.72-7.87,4.95-6-3.25-6.06-2.98-6.74-3.02,1.85-2.74,4.52-4.15,6.51-5.35,1.77-1.06,3.78-1.73,5.69-2.55.77-.33,4.22-1.5,5.02-1.81-.24-1.54-4.35-1.13-5.15-.9-.83.16-6.54.98-21.47,12.73.03-.58,4.94-6.11,6.5-7.41,5.34-4.43,11.22-7.93,17.86-10.02,1.13-.36,2.33-.52,3.52-.64,1.25-.13,2.25.43,2.85,1.54.58,1.07-.24,1.77-.67,2.67-1.14,2.41-2.21,4.89-2.94,7.45-.76,2.67-.74,4.09-1.96,6.59-2.44,5.01-8.83,5.68-13.42.15,2.63,1.8,3.56,2.71,5.75,2.66v-.02Z"/>
    <path class="cls-1" d="M309.75,252.09c-.81.01-1.35.02-1.9.03-2.97.07-5.95.07-8.91.24-2.77.16-4.77-2.08-4.1-4.78.22-.87.77-1.17,1.7-1.42-.62,1.06-.84,4.13,1.65,3.88,9.96-1.41,7.59-.96,13.75-2.87,5.71-1.34,4.01-4.33,4.14-5.2.49.41.71,1.03.78,1.56.3,2.58-1.55,6.38-3.97,7.48-1.08.49-2.24.78-3.14,1.08h0Z"/>
    <path class="cls-1" d="M293.17,275.75c.32-1.36,5.62-3.17,8.91-3.9.7-.16,1.29.55,1.03,1.21-.28.7-.18,1.05-.19,1.17-.07,1.94,1.17,2.05,1.33,4.58-4.26-3.11-10.1-2.81-11.08-3.06Z"/>
    <path class="cls-1" d="M291.49,267.92c-.39-1.38,1.13-1.27,1.9-1.44,4.33-.91,7.77-3.54,11.32-5.92.25-.17.44-.29.73-.42.53-.16.96-.24,1.45-.18.29.03.54.2.54.49,0,.57.03,1.14-.16,1.63-.41,1.04-1.16,1.95-1.62,2.98-.46,1.02-1.07,1.56-2.27,1.53-2.56-.07-5.07.2-7.39,1.44-.6.32-1.25.51-1.98.65-1.35.19-2.38-.21-2.53-.74v-.02Z"/>
    <path class="cls-1" d="M307.34,218.48c-2.71-1.69-3.72-4.04-3.03-8.52,1.15,5.65,1.68,6.56,3.03,8.52Z"/>
  </g>
  <g>
    <path class="cls-1" d="M49.56,280.87l-45.5,5.17-.11-.99,31.44-34.25-34.88,3.96-.51-4.48,45.5-5.17.12,1.02-31.04,33.95,34.46-3.91.53,4.7h-.01Z"/>
    <path class="cls-1" d="M1.64,213.08l.81-4.5,27.21,4.87c3.23.58,5.25.88,6.07.9,1.82.09,3.4-.16,4.74-.76,1.34-.6,2.57-1.68,3.68-3.23,1.11-1.55,1.82-3.18,2.13-4.9.27-1.49.21-2.98-.18-4.46-.39-1.48-1.06-2.78-2.02-3.9s-2.2-2.04-3.71-2.75c-1.09-.51-3.41-1.09-6.97-1.72l-27.21-4.87.81-4.5,27.21,4.87c4.02.72,7.21,1.7,9.55,2.93,2.34,1.23,4.22,3.19,5.64,5.88,1.42,2.69,1.82,5.71,1.22,9.06-.65,3.64-2.08,6.6-4.28,8.88s-4.81,3.61-7.83,3.98c-1.86.24-5.07-.05-9.65-.87l-27.21-4.87v-.04Z"/>
    <path class="cls-1" d="M57.49,170.58l-37.16-27.56.35-.65,41.91,1.51-24.27-34.1.35-.64,43.41,16-2.14,3.95-30.96-11.61,21.1,29.83-.56,1.03-36.82-1.3,26.88,19.66-2.1,3.89h.01Z"/>
    <path class="cls-1" d="M63.82,77.93l3.13-3.34,33.44,31.28-3.13,3.34-33.44-31.28Z"/>
    <path class="cls-1" d="M110.01,84.45l1.79-4.17c5.17,2.48,9.22,2.67,12.13.57,1.24-.9,2.2-2.04,2.88-3.41.67-1.37.94-2.75.81-4.14s-.6-2.63-1.39-3.72c-.9-1.24-2.2-2.16-3.91-2.75-2.35-.81-5.91-1.26-10.66-1.36-4.78-.1-7.93-.4-9.44-.89-2.58-.8-4.6-2.22-6.07-4.25-1.17-1.62-1.84-3.36-2.03-5.25s.15-3.72,1-5.5,2.1-3.27,3.75-4.46c1.75-1.26,3.7-2.01,5.85-2.25,2.15-.23,4.91.19,8.29,1.29l-1.37,4.49c-2.73-.84-4.81-1.2-6.21-1.08-1.41.12-2.69.61-3.86,1.44-1.5,1.08-2.39,2.42-2.69,4.02-.29,1.6.04,3.06,1,4.39.58.81,1.32,1.47,2.2,1.98s2.09.89,3.63,1.14c.83.12,3.32.2,7.47.24,4.93.05,8.66.57,11.19,1.55,2.53.99,4.47,2.41,5.82,4.28,1.95,2.69,2.61,5.77,2.01,9.23-.61,3.46-2.38,6.25-5.3,8.37-2.25,1.63-4.73,2.5-7.43,2.63-2.7.12-5.85-.67-9.44-2.38h-.02Z"/>
    <path class="cls-1" d="M156.43,64.13l-16.02-42.9,8.9-3.32c6.42-2.4,11.26-3.62,14.55-3.67,4.71-.1,8.9,1.22,12.59,3.94,3.68,2.72,6.46,6.57,8.32,11.55,1.61,4.3,2.09,8.42,1.45,12.39-.64,3.96-2.15,7.27-4.53,9.93s-6.25,4.99-11.6,6.99l-13.65,5.1h-.01ZM159.03,58.54l4.96-1.85c5.93-2.21,9.91-4.12,11.92-5.71,2.84-2.25,4.67-5.09,5.5-8.51s.51-7.1-.97-11.04c-1.55-4.14-3.87-7.3-6.96-9.49-3.1-2.19-6.64-3.16-10.62-2.91-2.99.19-7.56,1.43-13.73,3.73l-3.03,1.13,12.94,34.65h-.01Z"/>
    <path class="cls-1" d="M229.82,0l23.64,44.66-4.94.25-7.96-14.68-19.7,1-6.36,15.41-5.1.26L228.69.07l1.12-.06h.01ZM229.74,9.75l-7,16.95,15.64-.79-8.64-16.16Z"/>
    <path class="cls-1" d="M277.79,6.7l.92-4.39,24.56,5.12-.91,4.39-10-2.08-8.44,40.44-4.57-.95,8.43-40.44-10-2.09h.01Z"/>
    <path class="cls-1" d="M350.27,25.6l-1.44,50.51-4.42-2.22.32-16.7-17.64-8.84-13.13,10.27-4.56-2.29,39.87-31.24,1,.5h0ZM345.39,34.04l-14.44,11.3,13.99,7.02.45-18.32h0Z"/>
  </g>
</svg>