<?xml version="1.0" encoding="UTF-8"?>
<svg id="Capa_11" data-name="Capa 11" xmlns="http://www.w3.org/2000/svg" viewBox="0 0 1381.26 997.67">
  <defs>
    <style>
      .cls-1 {
        fill: none;
      }

      .cls-2 {
        fill: #eabd0d;
      }
    </style>
  </defs>
  <g>
    <path class="cls-2" d="M837.41,351.52c-.41-5.83-3.16-11.15-8.72-15.85-10.06,5.5-15.12,13-14.42,22.73-2.2-.48-4.37-.88-6.53-1.2,12.09-32.92,6.53-71.61-7.79-86.99-16.91,18.22-20.28,64.51-13.58,86.28-1.43,.13-2.86,.29-4.3,.5-.67-11.46-4.35-19.54-12.84-22.27-8.33,7.33-9.04,15.71-6.81,24.51,0,.04,.02,.07,.04,.11,0,.02,0,.04,.02,.05,0,.02,0,.04,.02,.05-.02-.02-.02-.04-.04-.05-.02-.02-.02-.04-.02-.05,0-.04-.02-.07-.02-.11-5.77-14.18-31.79-17.3-31.79-17.3,17.56-30.77-8.45-55.12-8.71-55.37-.37-.34-.97-.32-1.32,.04s-.33,.93,.04,1.27c.22,.2,18.08,16.91,13.45,39.93-.17-1.83-.63-3.57-1.41-5.2v-.04c-.28-1.11-.63-2.24-1.08-3.46-.02-.05-.04-.09-.06-.14-6.73-17.88-28.43-32.45-29.36-33.06-.41-.29-1-.18-1.28,.23-.3,.39-.19,.95,.24,1.24,.2,.14,20.2,13.59,27.68,29.92-4.24-4.11-10.55-6.81-17.15-8.59,0,0,0-.02-.02-.02-.06-.04-.09-.09-.15-.13-.17-.13-17.3-12.86-32.76-21.21-.45-.23-1-.09-1.27,.36-.24,.43-.09,.97,.35,1.22,11.33,6.11,23.59,14.61,29.28,18.66-11.18-2.33-22.04-2.35-23.98-2.33-1.45-.91-10.1-6.58-22.03-19.94-.33-.38-.91-.41-1.3-.09-.39,.32-.43,.88-.09,1.26,11.74,13.18,20.18,18.88,22.23,20.15,.11,2.12,.87,11.39,4.52,20.58-5.69-3.5-21.21-13.79-27.61-25.37-.24-.45-.82-.61-1.27-.38-.45,.23-.63,.77-.39,1.22,8.13,14.7,29.56,26.84,30.47,27.34,2.31,4.97,5.56,9.66,10.12,12.96-17.67-5.9-32.97-19.15-33.11-19.29-.39-.34-.99-.3-1.32,.05-.35,.38-.32,.95,.06,1.27,.19,.16,17.71,15.33,37.13,20.69,2.7,.75,5.34,1.27,7.83,1.58h.15c.56,.07,1.12,.14,1.69,.18-26.4,3.98-46.04-10.29-46.23-10.45-.41-.29-1-.22-1.32,.16-.3,.39-.22,.97,.17,1.27,.2,.13,15.81,11.51,38.03,11.51,4.73,0,9.73-.5,14.96-1.74,4.22-1.02,13.49-4.75,13.51-4.75,19.42,4.02,25.93,5.97,32.69,18.86,.02,.02,.02,.04,.04,.05h-.02c-2.14,.84-4.26,1.81-6.36,2.85-2.77,1.4-3.53,4.89-1.54,7.23l10.92,12.69c1.6,1.88,2.46,4.25,2.4,6.69-2.75,125.36-140.94,70.61-125.74,230.07,9.73-31.02,33.3-33.3,49.28-20.21,2.96-27.02-24.63-44.11-45.19-10.42,13.93-63.24,56.76-67.83,97.02-77.94,1.95-.48,3.87-.99,5.8-1.49,.3-.07,.58-.16,.87-.25,2.49-.66,4.99-1.4,7.44-2.17,3.11-.97,6.18-2.03,9.19-3.21,.32-.13,.61-.25,.93-.38,.06-.02,.11-.04,.17-.07,3.81-1.49,7.52-3.21,11.07-5.15,.39-.22,.78-.43,1.17-.66,6.44-3.64,12.46-8.12,17.88-13.86,.28-.29,.54-.57,.8-.88,7.79-8.53,14.32-19.74,18.96-34.78,4.78-15.56,7.55-35.25,7.68-60.35,0-2.47,.97-4.84,2.68-6.69l9.97-10.6c2.27-2.38,1.4-6.19-1.67-7.49-.32-.13-.61-.27-.93-.38,.24-.56,16.95-14.95,36.33,13.23,.2,.3,.74,.14,.73-.22-2.1-30.59-26.06-28.26-34.47-26.46Zm-139.6-21.98c-1.79-3.32-1.27-6.74,1.56-10.2,4.97-3.17,10.25-3.42,15.31-.74,7.53,4,13.49,14.24,13.58,23.11-11.18,.47-26.29-4.5-30.45-12.17Zm120.75,52.62c-.26,8.39-.69,23.79-1.54,31.5-2.83,24.19-9.02,49.68-26.68,68.08l-.97,1h-.06c-9.36,9.45-21.02,15.26-33.49,19.4-7.37,2.47-15.03,4.34-22.62,6.04-4.33,.99-8.67,1.9-12.91,2.85-25.32,5.34-48.67,14.43-62.3,37.04,15.81-28.65,43.76-35.18,71.31-42.51,7.01-1.85,13.99-3.77,20.74-6.1,13.32-4.63,25.73-10.9,35.66-21.73l.02-.02,.02-.02s.02-.02,.04-.04c15.79-17.82,20.46-41.96,22.27-64.76,.37-5,.45-14.36,.45-22.52,0-6.33-5.51-11.44-12.07-11.06-7.94,.43-15.94,2.37-24.41,5.41,12.97-9.9,32.11-12.12,46.62-4.59l-.07,2.01Z"/>
    <path class="cls-1" d="M728.26,341.71c-11.18,.47-26.29-4.5-30.45-12.17-1.79-3.32-1.27-6.74,1.56-10.2,4.97-3.17,10.25-3.42,15.31-.74,7.53,4,13.49,14.24,13.58,23.11Z"/>
    <path class="cls-2" d="M762.49,359.44s-.02-.04-.04-.05c-.02-.02-.02-.04-.02-.05,0-.04-.02-.07-.02-.11,0,.04,.02,.07,.04,.11,0,.02,0,.04,.02,.05,0,.02,0,.04,.02,.05Z"/>
    <path class="cls-1" d="M728.26,341.71c-11.18,.47-26.29-4.5-30.45-12.17-1.79-3.32-1.27-6.74,1.56-10.2,4.97-3.17,10.25-3.42,15.31-.74,7.53,4,13.49,14.24,13.58,23.11Z"/>
    <path class="cls-2" d="M750.53,519.43c-16.04,26.75-20.15,50.65-4.11,69.69-9.41,.05-17,3.73-20.46,15.55-16.71-29.1-11.35-59.53,16.85-91.3,1.95-.48,3.87-.99,5.8-1.49,.3-.07,.58-.16,.87-.25,.54,2.31,1.36,4.93,2.01,6.97l-.97,.82Z"/>
    <path class="cls-2" d="M751.74,519.35c-.07-.25-.17-.5-.24-.75-.65-2.04-1.47-4.66-2.01-6.97,2.49-.66,4.99-1.4,7.44-2.17,3.11-.97,6.18-2.03,9.19-3.21,.32-.13,.61-.25,.93-.38,.06-.02,.11-.04,.17-.07,1.77,70.43,66.02-14.18,12.24-5.81,6.44-3.64,12.46-8.12,17.88-13.86,.28-.29,.54-.57,.8-.88,50.94,17.66-22.98,107.79-46.4,34.1Z"/>
    <path class="cls-1" d="M818.64,380.15l-.07,2.01c-.26,8.39-.69,23.79-1.54,31.5-2.83,24.19-9.02,49.68-26.68,68.08l-.97,1h-.06c-9.36,9.45-21.02,15.26-33.49,19.4-7.37,2.47-15.03,4.34-22.62,6.04-4.33,.99-8.67,1.9-12.91,2.85-25.32,5.34-48.67,14.43-62.3,37.04,15.81-28.65,43.76-35.18,71.31-42.51,7.01-1.85,13.99-3.77,20.74-6.1,13.32-4.63,25.73-10.9,35.66-21.73l.02-.02,.02-.02s.02-.02,.04-.04c15.79-17.82,20.46-41.96,22.27-64.76,.37-5,.45-14.36,.45-22.52,0-6.33-5.51-11.44-12.07-11.06-7.94,.43-15.94,2.37-24.41,5.41,12.97-9.9,32.11-12.12,46.62-4.59Z"/>
    <g>
      <path class="cls-1" d="M772.02,384.74c8.46-3.05,16.46-4.98,24.41-5.41,6.57-.38,12.07,4.73,12.07,11.06,0,8.16-.07,17.52-.45,22.52-1.8,22.81-6.47,46.94-22.27,64.76-.02,.02-.04,.02-.04,.04l-.02,.02-.02,.02c-9.93,10.83-22.34,17.1-35.66,21.73-6.75,2.33-13.73,4.25-20.74,6.1-27.55,7.33-55.49,13.86-71.31,42.51,13.64-22.61,36.98-31.7,62.3-37.04,4.24-.95,8.58-1.86,12.91-2.85,7.59-1.7,15.25-3.57,22.62-6.04,12.46-4.14,24.13-9.95,33.49-19.4h.06l.97-1c17.65-18.4,23.85-43.89,26.68-68.08,.86-7.71,1.28-23.11,1.54-31.5l.07-2.01c-14.51-7.53-33.65-5.31-46.62,4.59Z"/>
      <path class="cls-1" d="M762.49,359.44s-.02-.04-.04-.05c-.02-.02-.02-.04-.02-.05,0-.04-.02-.07-.02-.11,0,.04,.02,.07,.04,.11,0,.02,0,.04,.02,.05,0,.02,0,.04,.02,.05Z"/>
      <path class="cls-1" d="M818.64,380.15l-.07,2.01c-.26,8.39-.69,23.79-1.54,31.5-2.83,24.19-9.02,49.68-26.68,68.08l-.97,1h-.06c-9.36,9.45-21.02,15.26-33.49,19.4-7.37,2.47-15.03,4.34-22.62,6.04-4.33,.99-8.67,1.9-12.91,2.85-25.32,5.34-48.67,14.43-62.3,37.04,15.81-28.65,43.76-35.18,71.31-42.51,7.01-1.85,13.99-3.77,20.74-6.1,13.32-4.63,25.73-10.9,35.66-21.73l.02-.02,.02-.02s.02-.02,.04-.04c15.79-17.82,20.46-41.96,22.27-64.76,.37-5,.45-14.36,.45-22.52,0-6.33-5.51-11.44-12.07-11.06-7.94,.43-15.94,2.37-24.41,5.41,12.97-9.9,32.11-12.12,46.62-4.59Z"/>
    </g>
    <g>
      <ellipse class="cls-2" cx="850.27" cy="384.42" rx="8.66" ry="8.35"/>
      <ellipse class="cls-2" cx="868.75" cy="389.39" rx="8.66" ry="8.35"/>
      <ellipse class="cls-2" cx="888.23" cy="396.48" rx="8.66" ry="8.35"/>
      <ellipse class="cls-2" cx="873.18" cy="409.04" rx="8.66" ry="8.35"/>
      <ellipse class="cls-2" cx="853.94" cy="403.59" rx="8.66" ry="8.35"/>
      <ellipse class="cls-2" cx="857.06" cy="422.57" rx="8.66" ry="8.35"/>
      <ellipse class="cls-2" cx="841.04" cy="436.53" rx="8.66" ry="8.35"/>
    </g>
  </g>
  <g>
    <path class="cls-2" d="M524.62,494.97l-57.6,6.31-.14-1.21,39.8-41.78-44.16,4.83-.65-5.47,57.6-6.31,.15,1.24-39.3,41.42,43.62-4.78,.68,5.74Z"/>
    <path class="cls-2" d="M463.97,412.26l1.02-5.5,34.45,5.94c4.09,.7,6.65,1.07,7.68,1.09,2.3,.11,4.3-.2,6-.93,1.7-.74,3.25-2.05,4.66-3.94,1.41-1.89,2.3-3.89,2.69-5.98,.34-1.82,.26-3.63-.23-5.44-.49-1.81-1.34-3.39-2.56-4.76-1.21-1.37-2.78-2.49-4.7-3.36-1.38-.62-4.32-1.32-8.82-2.1l-34.45-5.95,1.02-5.5,34.45,5.94c5.09,.88,9.12,2.07,12.09,3.57,2.96,1.5,5.34,3.89,7.14,7.17,1.79,3.28,2.31,6.96,1.55,11.05-.82,4.44-2.63,8.05-5.42,10.84-2.79,2.79-6.09,4.4-9.91,4.85-2.35,.29-6.42-.06-12.21-1.07l-34.45-5.94Z"/>
    <path class="cls-2" d="M534.66,360.41l-47.04-33.63,.45-.8,53.05,1.84-30.73-41.61,.44-.79,54.96,19.52-2.7,4.82-39.19-14.16,26.71,36.39-.7,1.26-46.61-1.58,34.03,23.99-2.66,4.74Z"/>
    <path class="cls-2" d="M542.68,247.37l3.96-4.08,42.34,38.17-3.96,4.08-42.34-38.17Z"/>
    <path class="cls-2" d="M601.15,255.32l2.26-5.09c6.55,3.03,11.67,3.26,15.35,.7,1.58-1.1,2.79-2.48,3.64-4.16,.85-1.67,1.2-3.36,1.03-5.05-.17-1.69-.75-3.21-1.76-4.54-1.14-1.52-2.79-2.64-4.94-3.35-2.98-.99-7.48-1.54-13.5-1.65-6.06-.12-10.04-.49-11.95-1.09-3.26-.98-5.82-2.71-7.69-5.19-1.48-1.97-2.34-4.1-2.57-6.41-.24-2.3,.18-4.54,1.26-6.71,1.08-2.17,2.66-3.99,4.75-5.44,2.21-1.54,4.68-2.46,7.4-2.74,2.72-.29,6.22,.24,10.49,1.57l-1.73,5.47c-3.46-1.03-6.08-1.47-7.87-1.32-1.78,.15-3.41,.74-4.88,1.76-1.9,1.32-3.03,2.95-3.4,4.9-.37,1.95,.05,3.73,1.27,5.35,.74,.99,1.67,1.79,2.79,2.42,1.12,.63,2.65,1.09,4.59,1.39,1.05,.14,4.2,.24,9.46,.3,6.24,.06,10.96,.69,14.16,1.9,3.21,1.2,5.66,2.95,7.37,5.22,2.46,3.28,3.31,7.04,2.54,11.26-.77,4.22-3.01,7.63-6.71,10.21-2.85,1.99-5.99,3.06-9.41,3.21-3.42,.15-7.41-.82-11.95-2.9Z"/>
    <path class="cls-2" d="M659.92,230.53l-20.28-52.35,11.26-4.05c8.12-2.92,14.26-4.42,18.41-4.48,5.96-.12,11.27,1.49,15.94,4.81,4.66,3.32,8.17,8.02,10.53,14.09,2.03,5.24,2.64,10.28,1.84,15.11-.81,4.83-2.72,8.87-5.74,12.12-3.02,3.25-7.91,6.09-14.68,8.53l-17.28,6.22Zm3.29-6.82l6.28-2.26c7.51-2.7,12.54-5.02,15.09-6.97,3.59-2.75,5.91-6.21,6.96-10.38,1.05-4.17,.64-8.66-1.22-13.47-1.96-5.05-4.9-8.91-8.82-11.57-3.92-2.67-8.4-3.85-13.45-3.55-3.78,.23-9.57,1.74-17.38,4.55l-3.84,1.38,16.38,42.27Z"/>
    <path class="cls-2" d="M752.83,152.29l29.93,54.49-6.25,.3-10.07-17.92-24.94,1.22-8.06,18.8-6.46,.32,24.43-57.14,1.42-.07Zm-.11,11.89l-8.86,20.68,19.8-.97-10.93-19.71Z"/>
    <path class="cls-2" d="M813.56,160.46l1.16-5.35,31.1,6.25-1.16,5.35-12.65-2.54-10.68,49.34-5.79-1.16,10.68-49.34-12.66-2.54Z"/>
    <path class="cls-2" d="M905.31,183.52l-1.82,61.62-5.6-2.7,.4-20.37-22.33-10.79-16.62,12.53-5.78-2.79,50.47-38.11,1.27,.61Zm-6.18,10.29l-18.29,13.79,17.72,8.56,.57-22.35Z"/>
  </g>
</svg>